<svg id="Layer_1" data-name="Layer 1" xmlns="http://www.w3.org/2000/svg" viewBox="0 0 102.05 102.05">
  <g>
    <path d="M72.09,101.5c-.5.19-1,.38-1.51.55a51,51,0,0,1-61.3-73L26.67,79.19A15.58,15.58,0,0,0,46.46,88.8L65.4,82.22Z" transform="translate(-2.83 -2.83)" style="fill: #fff"/>
    <path d="M65.58,38.45l18.18-6.31L78.54,17.08l-52,18L19.84,15.83c-.82.74-1.6,1.49-2.37,2.26l7,20.24,18.94-6.57a15.57,15.57,0,0,1,19.78,9.59l19,54.89c.93-.61,1.83-1.26,2.71-1.92ZM54.21,27.89l22.12-7.67,3.72,10.71L64.39,36.36A20.53,20.53,0,0,0,54.21,27.89Z" transform="translate(-2.83 -2.83)" style="fill: #fff"/>
    <path d="M87.83,91.93,70,40.6,88.2,34.29,80.69,12.64l-52,18-6-17.23A51,51,0,0,1,87.83,91.93Z" transform="translate(-2.83 -2.83)" style="fill: #fff"/>
    <path d="M61.69,71.51,42.75,78.09a4.23,4.23,0,0,1-5.37-2.61L28.21,49l18.94-6.57a4.22,4.22,0,0,1,5.36,2.59Z" transform="translate(-2.83 -2.83)" style="fill: #fff"/>
  </g>
</svg>
